<svg width="250" height="50" viewBox="0 0 250 50" fill="none" xmlns="http://www.w3.org/2000/svg">
  <rect width="250" height="50" fill="#003399"/>
  <g>
    <path d="M64.3 15.3H60L55 35H58.8L60 30.6H64.6L65.8 35H69.6L64.3 15.3ZM60.8 27.5L62.3 19.8L63.8 27.5H60.8Z" fill="white"/>
    <path d="M77.2 22.7C75 22.7 73.7 24.3 73.7 26.6V35H77.2V27.6C77.2 26.6 77.6 25.9 78.7 25.9C79.8 25.9 80.2 26.6 80.2 27.6V35H83.7V26.6C83.7 24.3 82.4 22.7 80.2 22.7H77.2Z" fill="white"/>
    <path d="M93.3 22.7H89.9V19.5H86.4V22.7H85V25.9H86.4V31C86.4 33.6 87.7 35.3 90.6 35.3H93.3V32.1H91.2C90.4 32.1 89.9 31.7 89.9 30.8V25.9H93.3V22.7Z" fill="white"/>
    <path d="M101 22.7C98 22.7 95.7 25 95.7 29C95.7 33 98 35.3 101 35.3C104 35.3 106.3 33 106.3 29C106.3 25 104 22.7 101 22.7ZM101 32.1C99.9 32.1 99.2 31 99.2 29C99.2 27 99.9 25.9 101 25.9C102.1 25.9 102.8 27 102.8 29C102.8 31 102.1 32.1 101 32.1Z" fill="white"/>
    <path d="M114.8 22.7C112.6 22.7 111.3 24.3 111.3 26.6V35H114.8V27.6C114.8 26.6 115.2 25.9 116.3 25.9C117.4 25.9 117.8 26.6 117.8 27.6V35H121.3V26.6C121.3 24.3 120 22.7 117.8 22.7H114.8Z" fill="white"/>
    <path d="M131.9 22.7H130.3C128.7 22.7 127.4 23.3 126.5 24.6V23H123V35H126.5V28.3C126.5 26.9 127.2 25.9 128.6 25.9H131.9V22.7Z" fill="white"/>
  </g>
  <g>
    <path d="M134.3 15.3H145.4V18.8H138.1V23.2H144.3V26.7H138.1V31.5H145.4V35H134.3V15.3Z" fill="white"/>
    <path d="M146.7 15.3H150.5V15.3L154.2 27.5L157.9 15.3L157.9 15.3H161.7L161.7 35H158.2V23L155.1 32.8H153.3L150.2 23V35H146.7V15.3Z" fill="white"/>
    <path d="M170.4 15.3H166.1L161.1 35H164.9L166.1 30.6H170.7L171.9 35H175.7L170.4 15.3ZM166.9 27.5L168.4 19.8L169.9 27.5H166.9Z" fill="white"/>
    <path d="M180.3 15.3H177V35H180.3V15.3Z" fill="white"/>
  </g>
  <path d="M11 19.3C11 18.7 11.2 18.2 11.7 17.9C12.1 17.6 12.6 17.4 13 17.4L43.6 17.4C44.1 17.4 44.5 17.5 45 17.9C45.4 18.2 45.6 18.7 45.6 19.3V30.7C45.6 31.3 45.4 31.8 45 32.1C44.6 32.4 44.1 32.6 43.6 32.6H13C12.6 32.6 12.1 32.5 11.7 32.1C11.2 31.8 11 31.3 11 30.7V19.3Z" fill="white"/>
  <path d="M186.3 15.3H183V35H186.3V15.3Z" fill="white"/>
  <path d="M195.7 22.7H192.2V35H195.7V22.7ZM194 16.5C192.8 16.5 191.8 17.5 191.8 18.7C191.8 19.9 192.8 20.9 194 20.9C195.2 20.9 196.2 19.9 196.2 18.7C196.2 17.5 195.2 16.5 194 16.5Z" fill="white"/>
  <path d="M208.6 22.7H206.9C205.3 22.7 204 23.3 203.1 24.6V23H199.6V35H203.1V28.3C203.1 26.9 203.9 25.9 205.2 25.9H208.6V22.7Z" fill="white"/>
  <path d="M216.2 22.7C213.2 22.7 210.9 25 210.9 29C210.9 33 213.2 35.3 216.2 35.3C219.2 35.3 221.5 33 221.5 29C221.5 25 219.2 22.7 216.2 22.7ZM216.2 32.1C215.1 32.1 214.4 31 214.4 29C214.4 27 215.1 25.9 216.2 25.9C217.3 25.9 218 27 218 29C218 31 217.3 32.1 216.2 32.1Z" fill="white"/>
  <path d="M229.9 22.7C227.7 22.7 226.4 24.3 226.4 26.6V35H229.9V27.6C229.9 26.6 230.3 25.9 231.4 25.9C232.5 25.9 232.9 26.6 232.9 27.6V35H236.4V26.6C236.4 24.3 235.1 22.7 232.9 22.7H229.9Z" fill="white"/>
  <path d="M19.9 21.3C19.9 21.3 20 21.4 20.1 21.4L20.1 21.5C20.1 21.5 20.1 21.6 20.1 21.6L24.5 25.9L29 21.6C29 21.6 29.1 21.5 29.1 21.5V21.4C29.1 21.4 29.2 21.3 29.3 21.3C29.5 21.3 29.7 21.3 29.8 21.5C30 21.6 30 21.8 30 22L30 26.1C30 26.2 30 26.4 29.8 26.5C29.7 26.7 29.5 26.7 29.3 26.7H29.3C29.1 26.7 28.9 26.7 28.8 26.5C28.6 26.4 28.6 26.2 28.6 26.1V23.1L25.3 26.3C25.1 26.5 24.9 26.6 24.6 26.6C24.3 26.6 24 26.5 23.8 26.3L20.5 23.1V26.1C20.5 26.2 20.5 26.4 20.3 26.5C20.2 26.7 20 26.7 19.8 26.7H19.8C19.6 26.7 19.4 26.7 19.3 26.5C19.1 26.4 19.1 26.2 19.1 26.1V22C19.1 21.8 19.1 21.6 19.3 21.5C19.4 21.3 19.6 21.3 19.8 21.3H19.9Z" fill="#003399"/>
  <path d="M24.5 28.9L24.6 28.8C24.8 28.8 25 28.9 25.1 29L28.7 32.6C28.7 32.6 28.8 32.7 28.8 32.7L28.8 32.7C28.8 32.7 28.9 32.7 28.9 32.6C29 32.6 29.1 32.5 29.1 32.3V27.9L28.9 27.9C29 27.9 29.1 28 29.3 28C29.5 28 29.7 28 29.8 28.2C29.9 28.3 30.1 28.5 30 28.7V32.3C30 32.5 29.9 32.7 29.8 32.8C29.7 32.9 29.5 33 29.3 33C29.1 33 28.9 32.9 28.7 32.8L24.6 28.8L20.4 32.8C20.2 33 20 33 19.9 33C19.7 33 19.5 32.9 19.3 32.8C19.2 32.7 19.1 32.5 19.1 32.3V28.7C19.1 28.5 19.2 28.3 19.3 28.2C19.4 28.1 19.6 28 19.8 28C20 28 20.1 28 20.3 28.1C20.4 28.2 20.5 28.4 20.5 28.5V32.3C20.5 32.5 20.6 32.6 20.6 32.6C20.7 32.7 20.7 32.7 20.7 32.7L20.7 32.7C20.7 32.7 20.8 32.6 20.8 32.6L24.4 29C24.4 28.9 24.5 28.9 24.5 28.9Z" fill="#003399"/>
  <path d="M36.8 23.5C36.8 23.5 36.7 23.5 36.7 23.5C36.7 23.4 36.7 23.4 36.7 23.4C36.7 23.3 36.7 23.3 36.8 23.3L36.8 23.2L36.9 23.2L36.9 23.2L37 23.2L37 23.2L39.3 25.4L39.6 25.7C39.6 25.7 39.6 25.7 39.7 25.7C39.7 25.6 39.7 25.6 39.7 25.6L39.7 23.6C39.7 23.6 39.7 23.5 39.7 23.5L39.7 23.5C39.7 23.5 39.7 23.5 39.7 23.5L39.8 23.5L39.8 23.5L39.8 23.5L39.8 23.5L39.9 23.5C39.9 23.5 39.9 23.5 39.9 23.5L39.9 23.5C39.9 23.5 39.9 23.6 39.9 23.6V23.6V26.3C39.9 26.3 39.9 26.4 39.9 26.4L39.9 26.4C39.9 26.4 39.9 26.4 39.9 26.4L39.8 26.5L39.8 26.5L39.7 26.5L39.7 26.5L38.4 25.3L37.1 24L37 23.9C37 23.9 36.9 23.9 36.9 24C36.9 24 36.9 24.1 36.9 24.1V26.3C36.9 26.4 36.9 26.4 36.9 26.4L36.9 26.4C36.9 26.4 36.8 26.5 36.8 26.5L36.8 26.5L36.7 26.5L36.7 26.5L36.7 26.4L36.7 26.4C36.7 26.4 36.7 26.4 36.7 26.3V23.6C36.7 23.5 36.7 23.5 36.7 23.5L36.8 23.5Z" fill="#003399"/>
  <path d="M32.1 26.8L32.1 23.6C32.1 23.5 32.1 23.5 32.1 23.5L32.1 23.5C32.1 23.5 32.1 23.5 32.1 23.5L32.2 23.5L32.2 23.5L32.3 23.5L32.3 23.5L32.3 23.5L32.3 23.5C32.3 23.5 32.3 23.5 32.3 23.6V23.6V26.3C32.3 26.3 32.3 26.4 32.3 26.4L32.3 26.4C32.3 26.4 32.3 26.4 32.3 26.4L32.3 26.5L32.3 26.5L32.2 26.5L32.2 26.5L32.1 26.5L32.1 26.4L32.1 26.4C32.1 26.4 32.1 26.3 32.1 26.3V26.8Z" fill="#003399"/>
  <path d="M34.5 26.8C34.5 26.9 34.4 26.9 34.4 26.9L34.4 26.9C34.3 26.9 34.3 26.9 34.3 26.8V23.2C34.3 23.1 34.3 23.1 34.4 23.1L34.4 23.1C34.4 23.1 34.5 23.1 34.5 23.2V26.8Z" fill="#003399"/>
  <path d="M35.7 26.8V23.2C35.7 23.1 35.7 23.1 35.8 23.1L35.8 23.1C35.8 23.1 35.9 23.1 35.9 23.2V26.8C35.9 26.9 35.8 26.9 35.8 26.9L35.8 26.9C35.7 26.9 35.7 26.9 35.7 26.8Z" fill="#003399"/>
  <path d="M32.1 27.9V27.9L32.1 27.9L32.2 27.9L32.2 27.9L34.4 30.2L36.5 28V27.9L36.6 27.9L36.6 27.9L36.7 27.9L36.7 27.9L36.7 28L39.3 30.6C39.3 30.6 39.3 30.6 39.3 30.6L39.3 30.6C39.3 30.6 39.3 30.6 39.3 30.6V30.6V27.9C39.3 27.9 39.3 27.9 39.3 27.9L39.3 27.9C39.3 27.9 39.4 27.9 39.4 27.9L39.4 27.9L39.4 27.9L39.5 27.9L39.5 27.9C39.5 27.9 39.5 27.9 39.5 27.9V27.9V30.6C39.5 30.7 39.5 30.7 39.5 30.7L39.5 30.7C39.5 30.7 39.4 30.7 39.4 30.7L39.4 30.7L39.4 30.7L39.3 30.7L39.3 30.7L36.7 28C36.7 28 36.7 28 36.6 28C36.6 28 36.6 28 36.6 28L34.4 30.3L32.2 28C32.2 28 32.2 28 32.1 28C32.1 28 32.1 28 32.1 28.1V30.6C32.1 30.7 32.1 30.7 32.1 30.7L32.1 30.7C32.1 30.7 32 30.7 32 30.7L32 30.7L31.9 30.7L31.9 30.7C31.9 30.7 31.9 30.7 31.9 30.7L31.9 30.7V27.9C31.9 27.9 31.9 27.9 31.9 27.9L31.9 27.9C31.9 27.9 31.9 27.9 32 27.9L32 27.9L32.1 27.9Z" fill="#003399"/>
</svg>
