<svg width="250" height="50" viewBox="0 0 250 50" fill="none" xmlns="http://www.w3.org/2000/svg">
  <rect width="250" height="50" fill="#003399"/>
  <g>
    <path d="M63.3 15.3H59L54 35H57.8L59 30.6H63.6L64.8 35H68.6L63.3 15.3ZM59.8 27.5L61.3 19.8L62.8 27.5H59.8Z" fill="white"/>
    <path d="M76.2 22.7C74 22.7 72.7 24.3 72.7 26.6V35H76.2V27.6C76.2 26.6 76.6 25.9 77.7 25.9C78.8 25.9 79.2 26.6 79.2 27.6V35H82.7V26.6C82.7 24.3 81.4 22.7 79.2 22.7H76.2Z" fill="white"/>
    <path d="M92.3 22.7H88.9V19.5H85.4V22.7H84V25.9H85.4V31C85.4 33.6 86.7 35.3 89.6 35.3H92.3V32.1H90.2C89.4 32.1 88.9 31.7 88.9 30.8V25.9H92.3V22.7Z" fill="white"/>
    <path d="M100 22.7C97 22.7 94.7 25 94.7 29C94.7 33 97 35.3 100 35.3C103 35.3 105.3 33 105.3 29C105.3 25 103 22.7 100 22.7ZM100 32.1C98.9 32.1 98.2 31 98.2 29C98.2 27 98.9 25.9 100 25.9C101.1 25.9 101.8 27 101.8 29C101.8 31 101.1 32.1 100 32.1Z" fill="white"/>
    <path d="M113.8 22.7C111.6 22.7 110.3 24.3 110.3 26.6V35H113.8V27.6C113.8 26.6 114.2 25.9 115.3 25.9C116.4 25.9 116.8 26.6 116.8 27.6V35H120.3V26.6C120.3 24.3 119 22.7 116.8 22.7H113.8Z" fill="white"/>
    <path d="M130.9 22.7H129.3C127.7 22.7 126.4 23.3 125.5 24.6V23H122V35H125.5V28.3C125.5 26.9 126.2 25.9 127.6 25.9H130.9V22.7Z" fill="white"/>
  </g>
  <g>
    <path d="M133.9 15.3H137.7L142.7 26.2V15.3H146.2V35H142.4L137.4 24.1V35H133.9V15.3Z" fill="white"/>
    <path d="M149.7 32.1L152.2 30.2C153 31.2 154.1 32 155.7 32C157 32 157.4 31.5 157.4 30.9C157.4 30.1 156.3 29.9 154.6 29.4C152.3 28.7 149.9 27.8 149.9 24.7C149.9 21.9 152.2 20.3 155.2 20.3C157.8 20.3 159.5 21.4 160.9 23.1L158.4 25.1C157.6 24.1 156.5 23.6 155.2 23.6C154.2 23.6 153.7 24 153.7 24.7C153.7 25.4 154.8 25.6 156.5 26.1C158.8 26.7 161.2 27.6 161.2 30.8C161.2 33.8 159 35.3 155.7 35.3C152.6 35.3 150.8 34 149.7 32.1Z" fill="white"/>
    <path d="M172.5 15.3H176.3V35H172.8V28.6H167.3V35H163.8V15.3H167.3V25.1H172.8V15.3H172.5Z" fill="white"/>
    <path d="M186.7 22.7C183.7 22.7 181.4 25 181.4 29C181.4 33 183.7 35.3 186.7 35.3C189.7 35.3 192 33 192 29C192 25 189.7 22.7 186.7 22.7ZM186.7 32.1C185.6 32.1 184.9 31 184.9 29C184.9 27 185.6 25.9 186.7 25.9C187.8 25.9 188.5 27 188.5 29C188.5 31 187.8 32.1 186.7 32.1Z" fill="white"/>
    <path d="M200.6 22.7H195.3V35H198.8V29.8H200.6C203 29.8 205 28.5 205 26.3C205 24.1 203 22.7 200.6 22.7ZM200.3 26.8H198.8V25.7H200.3C200.9 25.7 201.5 25.9 201.5 26.3C201.5 26.7 200.9 26.8 200.3 26.8Z" fill="white"/>
  </g>
  <path d="M11 19.3C11 18.7 11.2 18.2 11.7 17.9C12.1 17.6 12.6 17.4 13 17.4L43.6 17.4C44.1 17.4 44.5 17.5 45 17.9C45.4 18.2 45.6 18.7 45.6 19.3V30.7C45.6 31.3 45.4 31.8 45 32.1C44.6 32.4 44.1 32.6 43.6 32.6H13C12.6 32.6 12.1 32.5 11.7 32.1C11.2 31.8 11 31.3 11 30.7V19.3Z" fill="white"/>
  <path d="M223.8 22.7H220.3V35H223.8V22.7ZM222.1 16.5C220.9 16.5 219.9 17.5 219.9 18.7C219.9 19.9 220.9 20.9 222.1 20.9C223.3 20.9 224.3 19.9 224.3 18.7C224.3 17.5 223.3 16.5 222.1 16.5Z" fill="white"/>
  <path d="M236.7 22.7H235C233.4 22.7 232.1 23.3 231.2 24.6V23H227.7V35H231.2V28.3C231.2 26.9 232 25.9 233.3 25.9H236.7V22.7Z" fill="white"/>
  <path d="M211.2 22.7C208.2 22.7 205.9 25 205.9 29C205.9 33 208.2 35.3 211.2 35.3C213.9 35.3 216.2 33.6 216.5 30.9H212.9C212.6 31.8 212 32.1 211.2 32.1C210.1 32.1 209.4 31 209.4 29C209.4 27 210.1 25.9 211.2 25.9C212 25.9 212.5 26.3 212.9 27.1H216.5C216.2 24.5 214.1 22.7 211.2 22.7Z" fill="white"/>
  <path d="M19.9 21.3C19.9 21.3 20 21.4 20.1 21.4L20.1 21.5C20.1 21.5 20.1 21.6 20.1 21.6L24.5 25.9L29 21.6C29 21.6 29.1 21.5 29.1 21.5V21.4C29.1 21.4 29.2 21.3 29.3 21.3C29.5 21.3 29.7 21.3 29.8 21.5C30 21.6 30 21.8 30 22L30 26.1C30 26.2 30 26.4 29.8 26.5C29.7 26.7 29.5 26.7 29.3 26.7H29.3C29.1 26.7 28.9 26.7 28.8 26.5C28.6 26.4 28.6 26.2 28.6 26.1V23.1L25.3 26.3C25.1 26.5 24.9 26.6 24.6 26.6C24.3 26.6 24 26.5 23.8 26.3L20.5 23.1V26.1C20.5 26.2 20.5 26.4 20.3 26.5C20.2 26.7 20 26.7 19.8 26.7H19.8C19.6 26.7 19.4 26.7 19.3 26.5C19.1 26.4 19.1 26.2 19.1 26.1V22C19.1 21.8 19.1 21.6 19.3 21.5C19.4 21.3 19.6 21.3 19.8 21.3H19.9Z" fill="#003399"/>
  <path d="M24.5 28.9L24.6 28.8C24.8 28.8 25 28.9 25.1 29L28.7 32.6C28.7 32.6 28.8 32.7 28.8 32.7L28.8 32.7C28.8 32.7 28.9 32.7 28.9 32.6C29 32.6 29.1 32.5 29.1 32.3V27.9L28.9 27.9C29 27.9 29.1 28 29.3 28C29.5 28 29.7 28 29.8 28.2C29.9 28.3 30.1 28.5 30 28.7V32.3C30 32.5 29.9 32.7 29.8 32.8C29.7 32.9 29.5 33 29.3 33C29.1 33 28.9 32.9 28.7 32.8L24.6 28.8L20.4 32.8C20.2 33 20 33 19.9 33C19.7 33 19.5 32.9 19.3 32.8C19.2 32.7 19.1 32.5 19.1 32.3V28.7C19.1 28.5 19.2 28.3 19.3 28.2C19.4 28.1 19.6 28 19.8 28C20 28 20.1 28 20.3 28.1C20.4 28.2 20.5 28.4 20.5 28.5V32.3C20.5 32.5 20.6 32.6 20.6 32.6C20.7 32.7 20.7 32.7 20.7 32.7L20.7 32.7C20.7 32.7 20.8 32.6 20.8 32.6L24.4 29C24.4 28.9 24.5 28.9 24.5 28.9Z" fill="#003399"/>
  <path d="M37.5 26.9L36.6 26.6C36.5 26.6 36.4 26.5 36.4 26.5L36.4 26.4C36.4 26.3 36.5 26.2 36.6 26.2L37.5 26V25.1C37.5 25 37.6 24.9 37.6 24.9L37.7 24.9C37.8 24.9 37.9 25 37.9 25.1V26L38.8 26.2C38.9 26.2 39 26.3 39 26.4L39 26.5C39 26.6 38.9 26.7 38.8 26.7L37.9 26.9V27.8C37.9 27.9 37.8 28 37.7 28L37.6 28C37.6 28 37.5 27.9 37.5 27.8V26.9Z" fill="#003399"/>
  <path d="M33.7 27.1C33.7 26.9 33.8 26.7 33.9 26.6C34.1 26.5 34.3 26.4 34.5 26.4C34.7 26.4 34.9 26.5 35 26.6C35.2 26.7 35.3 26.9 35.3 27.1C35.3 27.3 35.2 27.5 35 27.6C34.9 27.7 34.7 27.8 34.5 27.8C34.3 27.8 34.1 27.7 33.9 27.6C33.8 27.5 33.7 27.3 33.7 27.1Z" fill="#003399"/>
  <path d="M32.8 23.5L32.2 25.9L31.7 23.5C31.7 23.4 31.7 23.3 31.8 23.2C31.8 23.1 31.9 23.1 32 23.1L32.1 23.1C32.1 23.1 32.2 23.1 32.2 23.3C32.2 23.3 32.3 23.3 32.3 23.4L32.8 25.1L33.4 23.4C33.4 23.3 33.4 23.3 33.4 23.3C33.5 23.2 33.5 23.1 33.6 23.1L33.7 23.1C33.8 23.1 33.8 23.1 33.9 23.2C33.9 23.3 34 23.4 33.9 23.5L33.4 25.9L32.8 23.5Z" fill="#003399"/>
</svg>
