<?xml version="1.0" standalone="no"?>
<!DOCTYPE svg PUBLIC "-//W3C//DTD SVG 20010904//EN"
 "http://www.w3.org/TR/2001/REC-SVG-20010904/DTD/svg10.dtd">
<svg version="1.0" xmlns="http://www.w3.org/2000/svg"
 width="744.000000pt" height="1052.000000pt" viewBox="0 0 744.000000 1052.000000"
 preserveAspectRatio="xMidYMid meet">

<g transform="translate(0.000000,1052.000000) scale(0.100000,-0.100000)"
fill="#000000" stroke="none">
<path d="M3455 8723 c-92 -7 -241 -24 -257 -29 -15 -4 -17 -17 -13 -102 11
-233 13 -426 4 -397 -5 17 -32 113 -59 215 -28 102 -57 191 -64 198 -11 12
-26 10 -92 -7 -112 -30 -332 -117 -379 -150 -38 -26 -40 -30 -38 -77 1 -41 60
-492 104 -801 14 -93 13 -92 93 -68 57 17 171 19 236 4 179 -41 344 -206 479
-479 50 -101 97 -218 89 -225 -2 -2 -21 28 -42 68 -232 436 -530 613 -839 497
-53 -20 -170 -89 -179 -107 -9 -15 57 -496 68 -500 6 -2 33 15 60 37 27 22 80
56 118 75 67 34 71 35 190 35 135 0 179 -14 279 -87 105 -78 226 -266 282
-443 28 -87 44 -234 31 -284 -7 -29 -37 -51 -81 -60 l-31 -7 0 69 c0 122 -30
156 -102 112 -47 -29 -72 -76 -72 -134 0 -176 207 -282 510 -261 257 18 370
80 401 221 17 76 1 125 -53 164 -47 35 -83 38 -98 11 -5 -11 -10 -54 -10 -96
0 -56 -4 -77 -14 -81 -20 -8 -70 20 -96 53 -20 25 -21 36 -15 95 15 159 80
343 167 474 58 87 157 183 228 220 53 28 60 29 195 29 139 0 141 0 209 -34 37
-18 92 -53 122 -77 36 -29 56 -40 59 -32 2 7 16 120 31 251 l27 237 -23 24
c-29 32 -140 90 -209 110 -80 23 -216 21 -294 -5 -185 -62 -335 -216 -487
-500 -67 -125 -70 -110 -9 45 81 205 206 393 325 491 125 102 247 133 394 100
140 -32 126 -36 139 37 33 193 121 826 117 844 -6 23 -136 88 -296 147 -155
57 -179 63 -195 46 -7 -8 -32 -75 -55 -149 -22 -74 -43 -137 -46 -140 -4 -3
-3 33 0 80 16 245 17 288 6 295 -22 14 -205 35 -356 41 l-151 7 -7 -74 c-6
-69 -45 -849 -47 -949 -1 -37 -2 -40 -8 -20 -10 32 -15 104 -46 600 -14 223
-27 415 -30 428 -5 20 -11 22 -68 20 -34 -1 -80 -3 -102 -5z"/>
<path d="M2740 6711 l-75 -28 2 -44 c3 -72 24 -235 32 -248 6 -9 28 -4 87 20
72 30 91 33 207 37 140 4 235 -8 310 -40 26 -11 50 -18 53 -15 3 3 -8 32 -24
64 -119 234 -363 339 -592 254z"/>
<path d="M4354 6722 c-111 -39 -199 -113 -275 -230 -63 -96 -63 -106 -1 -86
108 34 182 46 282 47 116 0 186 -12 273 -51 31 -14 60 -23 62 -20 8 8 35 208
35 260 l0 46 -62 22 c-89 31 -244 37 -314 12z"/>
<path d="M2955 6314 c-78 -19 -129 -50 -193 -118 -97 -103 -112 -172 -88 -401
19 -170 53 -438 62 -475 5 -21 9 -17 35 37 36 75 93 127 165 150 50 15 65 15
246 -2 268 -26 807 -26 1027 0 170 19 230 16 288 -14 46 -23 107 -87 130 -136
9 -19 20 -35 23 -35 7 0 62 343 81 505 22 183 -2 287 -87 372 -81 80 -196 123
-333 123 l-85 0 60 -36 c79 -47 100 -68 130 -131 22 -45 26 -63 22 -120 -9
-162 -127 -274 -348 -329 -66 -17 -114 -19 -390 -19 -298 0 -320 2 -405 24
-161 42 -265 113 -315 216 -30 63 -31 190 -1 239 25 40 81 92 135 125 34 22
37 26 20 32 -30 12 -114 9 -179 -7z"/>
<path d="M3361 5293 c-6 -21 -11 -45 -11 -54 0 -9 -8 -26 -17 -38 -17 -20 -26
-22 -111 -19 l-93 3 -22 55 c-12 30 -26 54 -32 53 -5 -1 -14 -16 -18 -35 -29
-112 -52 -142 -129 -167 -21 -7 -38 -17 -38 -21 0 -5 19 -14 42 -21 67 -18 95
-43 119 -110 12 -33 27 -58 32 -56 6 2 18 27 28 57 10 30 25 60 35 67 11 8 46
13 87 13 67 0 107 -11 107 -30 0 -23 43 -121 50 -113 4 4 15 34 24 66 13 45
22 60 42 67 31 12 154 13 173 1 7 -5 23 -33 35 -62 12 -30 26 -53 31 -53 6 1
18 27 28 57 22 63 28 67 132 67 88 0 109 -13 125 -80 7 -27 16 -53 21 -56 5
-3 22 24 38 59 16 35 36 67 46 71 27 10 122 7 150 -6 18 -8 31 -28 47 -70 11
-32 24 -61 29 -63 4 -3 17 21 29 52 28 75 48 96 115 119 30 10 55 21 55 25 0
4 -19 14 -42 24 -77 30 -99 59 -128 173 -13 51 -23 48 -40 -13 -20 -71 -48
-88 -142 -83 -42 3 -83 10 -90 16 -8 6 -20 34 -27 62 -7 27 -18 53 -23 57 -16
9 -35 -22 -43 -68 l-7 -39 -114 0 c-66 0 -114 4 -114 10 0 18 -41 120 -49 120
-4 0 -16 -30 -27 -67 -11 -39 -24 -68 -32 -67 -6 1 -54 2 -106 3 l-93 1 -22
60 c-12 32 -26 62 -31 65 -5 3 -14 -11 -19 -32z"/>
<path d="M4550 4739 c-88 -89 -162 -98 -458 -52 -156 25 -204 28 -407 27 -188
0 -255 -4 -365 -22 -302 -50 -379 -42 -468 44 -31 30 -58 51 -61 49 -2 -3 19
-240 47 -528 29 -287 52 -525 52 -529 0 -5 164 -8 364 -8 l364 0 5 23 c3 12
17 164 32 337 15 173 29 326 32 340 6 23 6 23 14 -10 4 -19 17 -159 28 -310
12 -151 24 -299 27 -327 l6 -53 369 0 c205 0 369 4 369 9 0 5 18 168 39 362
52 461 74 686 70 696 -2 4 -29 -17 -59 -48z"/>
</g>
</svg>
